<?xml version="1.0" encoding="UTF-8"?>
<svg id="Lag_2" data-name="Lag 2" xmlns="http://www.w3.org/2000/svg" xmlns:xlink="http://www.w3.org/1999/xlink" viewBox="0 0 1582.65 2238.81">
  <defs>
    <style>
      .cls-1, .cls-2 {
        fill: none;
      }

      .cls-2 {
        stroke: #0100d4;
        stroke-miterlimit: 10;
        stroke-width: .75px;
      }

      .cls-3 {
        fill: #fffcd1;
      }

      .cls-4 {
        clip-path: url(#clippath);
      }
    </style>
    <clipPath id="clippath">
      <rect class="cls-1" y="482.12" width="1582.65" height="1225.08"/>
    </clipPath>
  </defs>
  <g id="Lag_1-2" data-name="Lag 1">
    <g class="cls-4">
      <rect class="cls-3" y="482.12" width="1582.65" height="1225.08"/>
      <g>
        <path class="cls-2" d="M423.16,482.12c-11.07,194,15.88,397.08,81.35,580.03,14.41,40.25,34.13,83.66,73.39,100.59,48.9,21.09,115.87-4.82,152.61,33.73,31.36,32.91,15.13,86.5-2.7,128.32-30.23,70.89-59.93,142-89.11,213.32-25.09,61.33-50.08,123.93-55.96,189.93-3.49,39.13-.16,78.51,3.17,117.65,11.91,140.02,25.46,252.93,37.37,392.95"/>
        <path class="cls-2" d="M419.33,482.12c-5.15,92.56-1.14,187.61,11.29,281.02,7.13,53.45,17.3,106.53,30.77,158.23,12.24,47.03,27.11,92.87,44.17,137.65,15.09,39.64,35.29,82.55,73.81,100.14,5.25,2.4,10.69,4.26,16.28,5.72,29.6,7.77,62.97,4.27,91.36,10.44,15.21,3.27,28.99,9.32,39.94,21.4,30.09,33.25,14.02,86.48-3.86,128.23-30.38,70.9-61.05,141.54-90.47,212.84-25.29,61.3-49.88,124.07-55.61,190.15-2.59,29.86-1.27,59.87,1.02,89.79.71,9.32,1.52,18.64,2.33,27.94,8.09,93.01,17.25,174.34,25.97,259.55,4.4,42.92,8.57,86.71,13.11,133.41"/>
        <path class="cls-2" d="M415.49,482.12c-5,92.34-.39,187.57,12.32,280.64,7.31,53.36,17.86,106.34,32.13,157.53,12.96,46.56,28.81,91.51,46.64,135.61,15.77,39.03,36.45,81.44,74.23,99.69,5.15,2.49,10.48,4.46,15.92,6.06,28.89,8.5,60.98,6.23,88.28,13.14,14.61,3.7,27.87,10.02,38.36,22.19,28.81,33.59,12.91,86.47-5.02,128.15-30.53,70.92-62.18,141.09-91.83,212.36-25.49,61.27-49.68,124.21-55.26,190.37-2.52,29.89-1.18,59.93,1.15,89.86.73,9.33,1.55,18.65,2.38,27.96,8.25,92.84,17.93,174.33,26.96,259.6,4.57,43.04,8.74,86.81,13.85,133.37"/>
        <path class="cls-2" d="M411.65,482.12c-4.86,92.11.36,187.52,13.35,280.25,7.5,53.27,18.43,106.15,33.5,156.83,13.68,46.08,30.51,90.15,49.12,133.56,16.45,38.42,37.62,80.33,74.65,99.24,5.05,2.58,10.26,4.67,15.57,6.4,28.17,9.23,58.99,8.16,85.2,15.84,14.02,4.11,26.74,10.71,36.77,22.98,27.53,33.93,11.8,86.46-6.17,128.06-30.68,70.93-63.3,140.64-93.19,211.88-25.69,61.24-49.49,124.35-54.91,190.58-2.45,29.92-1.09,59.98,1.28,89.93.74,9.34,1.58,18.66,2.43,27.98,8.42,92.68,18.61,174.31,27.94,259.66,4.75,43.16,8.92,86.92,14.58,133.33"/>
        <path class="cls-2" d="M407.81,482.12c-4.71,91.89,1.11,187.48,14.38,279.87,7.68,53.18,18.99,105.96,34.86,156.13,14.4,45.61,32.21,88.79,51.6,131.52,17.13,37.81,38.78,79.22,75.08,98.79,4.95,2.67,10.04,4.88,15.21,6.74,27.45,9.95,57,10.08,82.12,18.53,13.43,4.52,25.64,11.38,35.18,23.77,26.34,34.2,10.69,86.45-7.33,127.98-30.83,70.95-64.42,140.18-94.55,211.4-25.9,61.21-49.29,124.49-54.56,190.8-2.38,29.95-1.01,60.04,1.41,90,.75,9.34,1.6,18.67,2.47,27.99,8.58,92.51,19.29,174.3,28.93,259.71,4.92,43.28,9.09,87.02,15.31,133.29"/>
        <path class="cls-2" d="M403.97,482.12c-4.56,91.66,1.86,187.43,15.41,279.49,7.87,53.09,19.55,105.77,36.23,155.43,15.12,45.13,33.91,87.43,54.08,129.48,17.81,37.2,39.94,78.11,75.5,98.33,4.85,2.76,9.82,5.08,14.86,7.08,26.73,10.68,55.01,12,79.04,21.23,12.83,4.93,24.52,12.07,33.59,24.56,25.08,34.53,9.58,86.44-8.49,127.89-30.98,70.96-65.54,139.73-95.91,210.92-26.1,61.18-49.09,124.63-54.2,191.02-2.31,29.97-.92,60.09,1.54,90.07.77,9.35,1.63,18.69,2.52,28.01,8.75,92.34,19.97,174.29,29.92,259.76,5.09,43.4,9.27,87.12,16.05,133.25"/>
        <path class="cls-2" d="M400.14,482.12c-4.41,91.44,2.61,187.39,16.44,279.1,8.05,53,20.11,105.58,37.59,154.73,15.84,44.66,35.61,86.07,56.55,127.43,18.49,36.59,41.1,77.01,75.92,97.88,4.75,2.85,9.6,5.29,14.5,7.42,26.02,11.41,53.01,13.92,75.96,23.93,12.23,5.33,23.39,12.76,32,25.35,23.83,34.86,8.47,86.43-9.65,127.81-31.13,70.97-66.67,139.27-97.27,210.44-26.3,61.15-48.9,124.77-53.85,191.24-2.24,30-.83,60.15,1.67,90.14.78,9.35,1.66,18.7,2.57,28.03,8.91,92.17,20.64,174.28,30.9,259.82,5.26,43.52,9.44,87.22,16.78,133.21"/>
        <path class="cls-2" d="M396.3,482.12c-4.27,91.21,3.36,187.34,17.47,278.72,8.24,52.91,20.67,105.39,38.96,154.03,16.56,44.18,37.31,84.71,59.03,125.39,19.17,35.98,42.27,75.9,76.34,97.43,4.65,2.95,9.38,5.5,14.15,7.77,25.3,12.14,51.02,15.84,72.88,26.63,11.64,5.74,22.27,13.45,30.41,26.14,22.57,35.19,7.36,86.42-10.81,127.72-31.28,70.99-67.79,138.82-98.63,209.96-26.5,61.12-48.7,124.91-53.5,191.46-2.17,30.03-.74,60.2,1.8,90.2.79,9.36,1.69,18.71,2.62,28.04,9.08,92,21.32,174.26,31.89,259.87,5.43,43.63,9.62,87.33,17.51,133.17"/>
        <path class="cls-2" d="M392.46,482.12c-4.12,90.99,4.11,187.3,18.5,278.34,8.42,52.81,21.24,105.2,40.32,153.33,17.28,43.71,39.01,83.35,61.51,123.34,19.85,35.37,43.43,74.79,76.77,96.98,4.55,3.04,9.16,5.7,13.79,8.11,24.58,12.87,49.02,17.75,69.8,29.32,11.04,6.14,21.15,14.14,28.82,26.93,21.31,35.52,6.25,86.41-11.97,127.64-31.43,71-68.91,138.37-99.99,209.48-26.7,61.09-48.5,125.05-53.15,191.68-2.1,30.06-.66,60.26,1.93,90.27.81,9.37,1.72,18.72,2.67,28.06,9.24,91.83,22,174.25,32.87,259.92,5.61,43.75,9.79,87.43,18.25,133.13"/>
        <path class="cls-2" d="M388.62,482.12c-3.97,90.76,4.86,187.25,19.53,277.95,8.61,52.72,21.8,105.01,41.69,152.62,18,43.23,40.71,81.99,63.99,121.3,20.53,34.76,44.59,73.68,77.19,96.53,4.45,3.13,8.95,5.91,13.44,8.45,23.87,13.59,47.01,19.66,66.72,32.02,10.43,6.54,20.02,14.83,27.23,27.72,20.05,35.85,5.14,86.4-13.13,127.55-31.58,71.02-70.03,137.91-101.35,209-26.9,61.06-48.31,125.19-52.8,191.9-2.03,30.09-.57,60.31,2.06,90.34.82,9.37,1.75,18.73,2.72,28.07,9.41,91.66,22.68,174.24,33.86,259.97,5.78,43.87,9.97,87.53,18.98,133.09"/>
        <path class="cls-2" d="M384.78,482.12c-3.83,90.54,5.61,187.21,20.56,277.57,8.79,52.63,22.36,104.82,43.05,151.92,18.72,42.76,42.41,80.63,66.46,119.25,21.21,34.14,45.76,72.57,77.61,96.08,4.35,3.22,8.73,6.12,13.09,8.79,23.15,14.32,45.01,21.57,63.64,34.72,9.83,6.94,18.9,15.53,25.64,28.52,18.79,36.19,4.03,86.39-14.29,127.47-31.74,71.03-71.16,137.46-102.71,208.52-27.1,61.03-48.11,125.33-52.45,192.12-1.96,30.12-.48,60.37,2.19,90.41.83,9.38,1.78,18.74,2.76,28.09,9.57,91.49,23.36,174.23,34.84,260.03,5.95,43.99,10.14,87.64,19.71,133.05"/>
        <path class="cls-2" d="M380.95,482.12c-3.68,90.31,6.36,187.16,21.59,277.19,8.98,52.54,22.92,104.63,44.42,151.22,19.44,42.28,44.11,79.27,68.94,117.21,21.89,33.53,46.92,71.46,78.03,95.62,4.25,3.31,8.51,6.31,12.73,9.13,22.46,15,43.01,23.46,60.56,37.41,9.23,7.34,17.78,16.22,24.06,29.31,17.53,36.53,2.92,86.38-15.44,127.38-31.89,71.05-72.28,137-104.07,208.04-27.3,61-47.92,125.47-52.1,192.33-1.89,30.14-.39,60.42,2.31,90.48.85,9.38,1.81,18.75,2.81,28.11,9.74,91.33,24.03,174.21,35.83,260.08,6.12,44.11,10.32,87.74,20.45,133.01"/>
        <path class="cls-2" d="M377.11,482.12c-3.53,90.08,7.11,187.12,22.62,276.8,9.16,52.45,23.48,104.44,45.78,150.52,20.16,41.81,45.81,77.91,71.42,115.16,22.57,32.92,48.08,70.35,78.45,95.17,4.15,3.4,8.3,6.52,12.38,9.47,21.75,15.73,41,25.36,57.48,40.11,8.63,7.73,16.65,16.91,22.47,30.1,16.26,36.87,1.81,86.37-16.6,127.3-32.04,71.06-73.4,136.55-105.43,207.56-27.5,60.97-47.72,125.61-51.74,192.55-1.82,30.17-.3,60.48,2.44,90.55.86,9.39,1.83,18.76,2.86,28.12,9.9,91.16,24.71,174.2,36.81,260.13,6.3,44.23,10.49,87.84,21.18,132.97"/>
        <path class="cls-2" d="M373.27,482.12c-3.38,89.86,7.86,187.08,23.64,276.42,9.35,52.36,24.04,104.25,47.15,149.82,20.88,41.33,47.51,76.55,73.89,113.12,23.25,32.31,49.24,69.24,78.88,94.72,4.05,3.49,8.08,6.73,12.02,9.81,21.03,16.46,39,27.24,54.4,42.81,8.03,8.12,15.53,17.61,20.88,30.89,15,37.21.7,86.36-17.76,127.21-32.19,71.08-74.52,136.1-106.79,207.08-27.7,60.95-47.52,125.75-51.39,192.77-1.75,30.2-.22,60.53,2.57,90.62.87,9.4,1.86,18.78,2.91,28.14,10.07,90.99,25.39,174.19,37.8,260.19,6.47,44.35,10.66,87.94,21.91,132.93"/>
        <path class="cls-2" d="M369.43,482.12c-3.24,89.63,8.61,187.03,24.67,276.04,9.53,52.27,24.61,104.06,48.51,149.12,21.6,40.86,49.21,75.19,76.37,111.08,23.94,31.7,50.41,68.13,79.3,94.27,3.95,3.58,7.86,6.93,11.67,10.15,20.32,17.19,37,29.13,51.32,45.51,7.43,8.51,14.4,18.3,19.29,31.68,13.73,37.55-.41,86.34-18.92,127.13-32.34,71.09-75.64,135.64-108.15,206.6-27.9,60.92-47.33,125.89-51.04,192.99-1.68,30.23-.13,60.59,2.7,90.68.89,9.4,1.89,18.79,2.96,28.16,10.23,90.82,26.07,174.17,38.78,260.24,6.64,44.47,10.84,88.05,22.65,132.89"/>
        <path class="cls-2" d="M365.59,482.12c-3.09,89.41,9.36,186.99,25.7,275.65,9.72,52.18,25.17,103.87,49.88,148.42,22.32,40.38,50.9,73.83,78.85,109.03,24.62,31.09,51.57,67.02,79.72,93.82,3.85,3.68,7.64,7.14,11.31,10.49,19.6,17.92,35.01,31,48.24,48.2,6.84,8.89,13.27,19,17.7,32.47,12.46,37.9-1.52,86.33-20.08,127.04-32.49,71.11-76.77,135.19-109.51,206.12-28.1,60.89-47.13,126.03-50.69,193.21-1.61,30.26-.04,60.64,2.83,90.75.9,9.41,1.92,18.8,3.01,28.17,10.39,90.65,26.75,174.16,39.77,260.29,6.81,44.59,11.01,88.15,23.38,132.85"/>
        <path class="cls-2" d="M361.76,482.12c-2.94,89.18,10.11,186.94,26.73,275.27,9.9,52.09,25.73,103.68,51.24,147.72,23.04,39.91,52.6,72.47,81.33,106.99,25.3,30.48,52.73,65.91,80.14,93.37,3.75,3.77,7.42,7.35,10.96,10.84,18.89,18.65,33.02,32.88,45.15,50.9,6.24,9.27,12.14,19.7,16.11,33.26,11.18,38.24-2.63,86.32-21.24,126.96-32.64,71.12-77.89,134.73-110.87,205.64-28.3,60.86-46.93,126.17-50.34,193.43-1.54,30.28.05,60.7,2.96,90.82.91,9.41,1.95,18.81,3.05,28.19,10.56,90.48,27.42,174.15,40.76,260.35,6.98,44.71,11.19,88.25,24.11,132.81"/>
        <path class="cls-2" d="M357.92,482.12c-2.8,88.96,10.87,186.9,27.76,274.88,10.09,52,26.29,103.49,52.61,147.02,23.76,39.43,54.3,71.11,83.8,104.94,25.98,29.87,53.9,64.8,80.57,92.91,3.65,3.86,7.21,7.55,10.6,11.18,18.17,19.38,31.04,34.74,42.07,53.6,5.65,9.65,11.02,20.39,14.52,34.05,9.91,38.59-3.74,86.31-22.4,126.87-32.79,71.14-79.01,134.28-112.23,205.16-28.5,60.83-46.74,126.31-49.99,193.65-1.47,30.31.13,60.75,3.09,90.89.93,9.42,1.98,18.82,3.1,28.2,10.72,90.31,28.1,174.14,41.74,260.4,7.16,44.82,11.36,88.36,24.85,132.77"/>
        <path class="cls-2" d="M354.08,482.12c-2.65,88.73,11.62,186.85,28.79,274.5,10.27,51.91,26.85,103.3,53.97,146.32,24.48,38.95,56,69.75,86.28,102.9,26.66,29.26,55.06,63.69,80.99,92.46,3.55,3.95,6.99,7.76,10.25,11.52,17.46,20.11,29.06,36.61,38.99,56.29,5.06,10.03,9.89,21.09,12.93,34.84,8.63,38.93-4.85,86.3-23.56,126.79-32.94,71.15-80.13,133.83-113.59,204.68-28.7,60.8-46.54,126.45-49.64,193.87-1.4,30.34.22,60.81,3.22,90.96.94,9.43,2.01,18.83,3.15,28.22,10.89,90.15,28.78,174.12,42.73,260.45,7.33,44.94,11.54,88.46,25.58,132.73"/>
        <path class="cls-2" d="M350.24,482.12c-2.5,88.51,12.37,186.81,29.82,274.12,10.46,51.82,27.42,103.11,55.34,145.62,25.2,38.48,57.7,68.39,88.76,100.85,27.34,28.65,56.22,62.58,81.41,92.01,3.45,4.04,6.77,7.97,9.9,11.86,16.74,20.84,27.09,38.48,35.91,58.99,4.48,10.41,8.75,21.78,11.34,35.63,7.35,39.28-5.96,86.29-24.71,126.7-33.09,71.16-81.26,133.37-114.95,204.2-28.9,60.77-46.34,126.59-49.29,194.08-1.33,30.37.31,60.86,3.35,91.03.95,9.43,2.03,18.84,3.2,28.24,11.05,89.98,29.46,174.11,43.71,260.5,7.5,45.06,11.71,88.56,26.31,132.69"/>
        <path class="cls-2" d="M346.4,482.12c-2.35,88.28,13.12,186.76,30.85,273.73,10.64,51.73,27.98,102.92,56.7,144.91,25.92,38,59.4,67.03,91.24,98.81,28.02,28.04,57.38,61.47,81.83,91.56,3.35,4.13,6.55,8.17,9.54,12.2,16.02,21.57,25.12,40.34,32.83,61.69,3.9,10.79,7.62,22.48,9.76,36.43,6.06,39.63-7.07,86.28-25.87,126.62-33.25,71.18-82.38,132.92-116.31,203.72-29.11,60.74-46.15,126.73-48.93,194.3-1.26,30.4.4,60.92,3.48,91.1.97,9.44,2.06,18.85,3.25,28.25,11.22,89.81,30.14,174.1,44.7,260.56,7.67,45.18,11.89,88.66,27.05,132.65"/>
        <path class="cls-2" d="M342.57,482.12c-2.21,88.06,13.87,186.72,31.88,273.35,10.83,51.64,28.54,102.73,58.07,144.21,26.64,37.53,61.1,65.67,93.71,96.77,28.7,27.43,58.55,60.37,82.25,91.11,3.25,4.22,6.32,8.39,9.19,12.54,15.26,22.33,23.16,42.21,29.75,64.38,3.32,11.17,6.49,23.18,8.17,37.22,4.78,39.97-8.18,86.27-27.03,126.53-33.4,71.19-83.5,132.46-117.67,203.24-29.31,60.71-45.95,126.87-48.58,194.52-1.19,30.42.49,60.97,3.61,91.16.98,9.44,2.09,18.87,3.3,28.27,11.38,89.64,30.81,174.08,45.68,260.61,7.85,45.3,12.06,88.77,27.78,132.61"/>
        <path class="cls-2" d="M338.73,482.12c-2.06,87.83,14.62,186.67,32.91,272.97,11.01,51.54,29.1,102.54,59.43,143.51,27.36,37.05,62.8,64.31,96.19,94.72,29.38,26.81,59.71,59.26,82.68,90.66,3.15,4.32,6.11,8.59,8.83,12.88,14.54,23.06,21.21,44.08,26.67,67.08,2.74,11.54,5.36,23.87,6.58,38.01,3.49,40.32-9.29,86.26-28.19,126.45-33.55,71.21-84.62,132.01-119.03,202.76-29.51,60.68-45.76,127.01-48.23,194.74-1.12,30.45.57,61.03,3.74,91.23.99,9.45,2.12,18.88,3.34,28.29,11.55,89.47,31.49,174.07,46.67,260.66,8.02,45.42,12.24,88.87,28.51,132.57"/>
        <path class="cls-2" d="M334.89,482.12c-1.91,87.6,15.37,186.63,33.94,272.58,11.2,51.45,29.66,102.35,60.8,142.81,28.09,36.58,64.5,62.95,98.67,92.68,30.06,26.2,60.87,58.15,83.1,90.2,3.05,4.41,5.89,8.8,8.48,13.22,13.83,23.79,19.26,45.95,23.59,69.78,2.17,11.93,4.22,24.57,4.99,38.8,2.2,40.66-10.4,86.25-29.35,126.36-33.7,71.22-85.75,131.56-120.39,202.28-29.71,60.65-45.56,127.15-47.88,194.96-1.05,30.48.66,61.09,3.87,91.3,1.01,9.45,2.15,18.89,3.39,28.3,11.71,89.3,32.17,174.06,47.65,260.72,8.19,45.54,12.41,88.97,29.25,132.53"/>
        <path class="cls-2" d="M331.05,482.12c-1.77,87.38,16.12,186.58,34.97,272.2,11.38,51.36,30.23,102.16,62.17,142.11,28.81,36.1,66.2,61.59,101.15,90.63,30.74,25.59,62.04,57.04,83.52,89.75,2.94,4.5,5.67,9.01,8.12,13.56,13.11,24.51,17.31,47.82,20.51,72.48,1.6,12.31,3.09,25.26,3.4,39.59.9,41.01-11.51,86.24-30.51,126.28-33.85,71.24-86.87,131.1-121.75,201.8-29.91,60.62-45.36,127.29-47.53,195.18-.98,30.51.75,61.14,4,91.37,1.02,9.46,2.18,18.9,3.44,28.32,11.88,89.13,32.85,174.05,48.64,260.77,8.36,45.66,12.58,89.08,29.98,132.49"/>
        <path class="cls-2" d="M327.21,482.12c-1.62,87.15,16.87,186.54,36,271.82,11.57,51.27,30.79,101.97,63.53,141.41,29.53,35.63,67.9,60.23,103.62,88.59,31.42,24.98,63.2,55.93,83.94,89.3,2.84,4.59,5.45,9.21,7.77,13.9,12.39,25.24,15.37,49.7,17.43,75.17,1.03,12.69,1.95,25.96,1.81,40.38-.4,41.35-12.62,86.23-31.67,126.19-34,71.25-87.99,130.65-123.11,201.32-30.11,60.59-45.17,127.43-47.18,195.4-.91,30.54.84,61.2,4.13,91.44,1.03,9.47,2.21,18.91,3.49,28.33,12.04,88.96,33.53,174.03,49.63,260.82,8.54,45.78,12.76,89.18,30.71,132.45"/>
        <path class="cls-2" d="M323.38,482.12c-1.47,86.93,17.62,186.49,37.03,271.43,11.75,51.18,31.35,101.78,64.9,140.71,30.25,35.15,69.6,58.87,106.1,86.54,32.1,24.37,64.36,54.82,84.37,88.85,2.74,4.68,5.23,9.42,7.41,14.25,11.67,25.97,13.43,51.58,14.35,77.87.46,13.08.81,26.65.22,41.17-1.69,41.69-13.73,86.21-32.83,126.11-34.15,71.27-89.11,130.19-124.47,200.84-30.31,60.56-44.97,127.57-46.83,195.62-.84,30.56.92,61.25,4.26,91.51,1.04,9.47,2.24,18.92,3.54,28.35,12.21,88.8,34.2,174.02,50.61,260.87,8.71,45.89,12.93,89.28,31.45,132.41"/>
        <path class="cls-2" d="M319.54,482.12c-1.33,86.7,18.37,186.45,38.06,271.05,11.94,51.09,31.91,101.59,66.26,140.01,30.97,34.68,71.3,57.51,108.58,84.5,32.78,23.76,65.52,53.71,84.79,88.4,2.64,4.77,5.01,9.63,7.06,14.59,10.96,26.7,11.49,53.47,11.27,80.57-.11,13.47-.32,27.35-1.37,41.96-2.99,42.03-14.84,86.2-33.98,126.02-34.3,71.28-90.24,129.74-125.83,200.36-30.51,60.53-44.77,127.71-46.47,195.83-.77,30.59,1.01,61.31,4.39,91.57,1.06,9.48,2.26,18.93,3.59,28.37,12.37,88.63,34.88,174.01,51.6,260.93,8.88,46.01,13.11,89.38,32.18,132.37"/>
        <path class="cls-2" d="M315.7,482.12c-1.18,86.48,19.12,186.41,39.09,270.67,12.12,51,32.47,101.4,67.63,139.31,31.69,34.2,72.99,56.15,111.06,82.46,33.47,23.15,66.69,52.6,85.21,87.95,2.54,4.86,4.8,9.83,6.71,14.93,10.24,27.43,9.56,55.35,8.19,83.26-.68,13.86-1.46,28.04-2.96,42.75-4.3,42.37-15.95,86.19-35.14,125.94-34.45,71.3-91.36,129.29-127.19,199.88-30.71,60.5-44.58,127.85-46.12,196.05-.7,30.62,1.1,61.36,4.52,91.64,1.07,9.48,2.29,18.94,3.63,28.38,12.54,88.46,35.56,173.99,52.58,260.98,9.05,46.13,13.28,89.49,32.91,132.33"/>
        <path class="cls-2" d="M311.86,482.12c-1.03,86.25,19.87,186.36,40.11,270.28,12.31,50.91,33.03,101.21,68.99,138.61,32.41,33.73,74.69,54.79,113.53,80.41,34.15,22.54,67.85,51.49,85.63,87.5,2.44,4.95,4.58,10.04,6.35,15.27,9.52,28.16,7.62,57.25,5.11,85.96-1.25,14.25-2.62,28.73-4.54,43.54-5.66,42.7-17.06,86.18-36.3,125.85-34.6,71.31-92.48,128.83-128.55,199.4-30.91,60.47-44.38,127.99-45.77,196.27-.63,30.65,1.19,61.42,4.65,91.71,1.08,9.49,2.32,18.96,3.68,28.4,12.7,88.29,36.24,173.98,53.57,261.03,9.22,46.25,13.46,89.59,33.65,132.29"/>
        <path class="cls-2" d="M308.02,482.12c-.88,86.03,20.62,186.32,41.14,269.9,12.49,50.82,33.6,101.02,70.36,137.91,33.13,33.25,76.39,53.43,116.01,78.37,34.83,21.93,69.01,50.38,86.06,87.04,2.34,5.05,4.36,10.25,6,15.61,8.81,28.88,5.72,59.14,2.03,88.66-1.79,14.65-3.75,29.42-6.13,44.34-6.93,43.04-18.17,86.17-37.46,125.77-34.76,71.32-93.6,128.38-129.91,198.92-31.11,60.44-44.18,128.13-45.42,196.49-.56,30.68,1.28,61.47,4.78,91.78,1.1,9.5,2.35,18.97,3.73,28.42,12.86,88.12,36.92,173.97,54.55,261.09,9.4,46.37,13.63,89.69,34.38,132.25"/>
        <path class="cls-2" d="M304.19,482.12c-.74,85.8,21.37,186.27,42.17,269.52,12.68,50.73,34.16,100.83,71.72,137.21,33.85,32.78,78.09,52.07,118.49,76.32,40.4,24.25,79.7,57.09,92.12,102.54,8.09,29.61,3.75,61.04-1.05,91.36-9.26,58.49-20.31,117.61-46.34,170.81-34.91,71.34-94.73,127.92-131.27,198.44-45.36,87.52-51.61,190.65-40.16,288.56,11.45,97.91,39.44,193.02,59.32,289.57,9.57,46.49,13.81,89.8,35.11,132.21"/>
      </g>
      <g>
        <path class="cls-2" d="M416.68.02c-11.77,194,16.88,397.08,86.47,580.03,15.31,40.25,36.27,83.66,78,100.59,51.97,21.09,123.16-4.82,162.21,33.73,33.34,32.91,16.09,86.5-2.87,128.32-32.13,70.89-63.7,142-94.72,213.32-26.67,61.33-53.23,123.93-59.48,189.93-3.71,39.13-.17,78.51,3.37,117.65,12.66,140.02,27.06,252.93,39.72,392.95"/>
        <path class="cls-2" d="M412.6.02c-5.48,92.68-1.21,187.84,12.05,281.36,7.68,54.08,18.66,107.78,33.22,160.07,12.84,46.23,28.36,91.31,46.16,135.35.98,2.42,1.97,4.85,3,7.28,15.72,37.47,37.03,76.26,75.55,92.73,8.02,3.44,16.47,5.78,25.15,7.43,30.3,5.77,63.41,3.05,91.6,9.39,15.29,3.39,29.14,9.45,40.24,20.99,31.98,33.25,14.91,86.49-4.1,128.24-32.29,70.9-64.9,141.54-96.17,212.84-26.89,61.3-53.02,124.08-59.11,190.16-2.73,29.65-1.37,59.45,1.03,89.16.77,9.54,1.65,19.07,2.53,28.58,8.59,92.86,18.31,174.08,27.56,259.14,4.69,43.04,9.14,86.96,13.98,133.8"/>
        <path class="cls-2" d="M408.52.02c-5.32,92.45-.41,187.79,13.14,280.97,7.87,53.97,19.25,107.55,34.66,159.31,13.55,45.72,30.02,89.94,48.6,133.26,1.02,2.38,2.06,4.77,3.12,7.17,16.37,36.88,38.11,75.23,75.96,92.26,7.89,3.58,16.17,6.1,24.65,7.97,29.58,6.56,61.41,5.06,88.51,12.12,14.68,3.82,27.99,10.14,38.62,21.79,30.62,33.59,13.73,86.48-5.33,128.15-32.45,70.92-66.09,141.09-97.61,212.36-27.1,61.28-52.81,124.23-58.74,190.4-2.66,29.68-1.27,59.51,1.17,89.23.78,9.54,1.68,19.08,2.58,28.6,8.76,92.69,19.03,174.06,28.61,259.18,4.87,43.16,9.32,87.05,14.76,133.75"/>
        <path class="cls-2" d="M404.44.02c-5.17,92.22.39,187.74,14.24,280.57,8.06,53.86,19.84,107.31,36.09,158.55,14.26,45.22,31.68,88.56,51.03,131.16,1.06,2.34,2.14,4.69,3.24,7.05,17.01,36.29,39.22,74.12,76.37,91.8,7.77,3.7,15.88,6.42,24.14,8.52,28.85,7.36,59.41,7.04,85.42,14.85,14.08,4.23,26.85,10.83,37.01,22.59,29.27,33.93,12.55,86.47-6.56,128.07-32.61,70.93-67.28,140.64-99.06,211.88-27.32,61.25-52.61,124.38-58.36,190.64-2.58,29.71-1.18,59.56,1.31,89.31.8,9.55,1.71,19.09,2.63,28.62,8.94,92.52,19.75,174.04,29.65,259.23,5.06,43.27,9.51,87.15,15.53,133.69"/>
        <path class="cls-2" d="M400.36.02c-5.01,91.99,1.19,187.69,15.33,280.18,8.26,53.75,20.43,107.08,37.52,157.79,14.97,44.71,33.34,87.18,53.47,129.07,1.1,2.3,2.23,4.61,3.37,6.93,17.66,35.7,40.31,73.07,76.79,91.33,7.65,3.83,15.58,6.74,23.64,9.06,28.13,8.15,57.41,9.01,82.33,17.58,13.48,4.64,25.71,11.51,35.4,23.39,27.91,34.27,11.37,86.46-7.8,127.99-32.77,70.95-68.47,140.18-100.5,211.4-27.54,61.23-52.4,124.53-57.99,190.87-2.51,29.74-1.08,59.62,1.45,89.38.81,9.56,1.74,19.1,2.69,28.63,9.11,92.35,20.47,174.02,30.7,259.27,5.24,43.39,9.69,87.24,16.31,133.64"/>
        <path class="cls-2" d="M396.28.02c-4.85,91.76,1.98,187.63,16.42,279.78,8.45,53.63,21.02,106.85,38.96,157.02,15.68,44.21,35,85.81,55.9,126.98,1.15,2.26,2.31,4.53,3.49,6.81,18.3,35.11,41.4,72.02,77.2,90.87,7.52,3.96,15.28,7.06,23.13,9.6,27.41,8.95,55.41,10.98,79.24,20.32,12.87,5.04,24.56,12.2,33.78,24.2,26.55,34.61,10.19,86.45-9.03,127.91-32.93,70.96-69.67,139.73-101.95,210.92-27.75,61.21-52.19,124.69-57.62,191.11-2.43,29.77-.99,59.68,1.59,89.45.83,9.56,1.77,19.11,2.74,28.65,9.29,92.18,21.19,174,31.74,259.32,5.42,43.5,9.88,87.34,17.09,133.59"/>
        <path class="cls-2" d="M392.2.02c-4.7,91.53,2.78,187.58,17.51,279.39,8.64,53.52,21.6,106.62,40.39,156.26,16.38,43.7,36.66,84.43,58.34,124.89,1.19,2.22,2.4,4.45,3.62,6.69,18.95,34.52,42.49,70.97,77.61,90.4,7.39,4.09,14.98,7.39,22.63,10.15,26.68,9.74,53.4,12.94,76.15,23.05,12.27,5.45,23.42,12.88,32.17,25,25.2,34.95,9.01,86.45-10.26,127.83-33.09,70.97-70.86,139.27-103.39,210.44-27.97,61.18-51.99,124.84-57.24,191.35-2.36,29.8-.89,59.73,1.73,89.52.84,9.57,1.8,19.13,2.79,28.67,9.47,92.01,21.91,173.98,32.79,259.36,5.6,43.62,10.06,87.43,17.87,133.53"/>
        <path class="cls-2" d="M388.12.02c-4.54,91.3,3.58,187.53,18.61,278.99,8.84,53.41,22.19,106.39,41.82,155.5,17.09,43.2,38.32,83.06,60.77,122.79,1.23,2.18,2.48,4.38,3.74,6.58,19.59,33.93,43.58,69.92,78.02,89.94,7.27,4.22,14.69,7.71,22.12,10.69,25.96,10.54,51.39,14.91,73.06,25.78,11.66,5.85,22.27,13.57,30.55,25.8,23.84,35.28,7.83,86.44-11.49,127.75-33.25,70.99-72.05,138.82-104.84,209.96-28.18,61.16-51.78,124.99-56.87,191.58-2.28,29.83-.8,59.79,1.87,89.59.86,9.58,1.84,19.14,2.85,28.69,9.64,91.83,22.63,173.96,33.84,259.4,5.79,43.73,10.25,87.53,18.65,133.48"/>
        <path class="cls-2" d="M384.04.02c-4.38,91.07,4.38,187.48,19.7,278.6,9.03,53.3,22.78,106.16,43.26,154.74,17.8,42.69,39.98,81.68,63.21,120.7,1.28,2.14,2.56,4.3,3.87,6.46,20.23,33.34,44.67,68.88,78.44,89.47,7.14,4.36,14.39,8.03,21.61,11.24,25.24,11.33,49.38,16.86,69.97,28.51,11.05,6.25,21.13,14.26,28.94,26.6,22.48,35.62,6.65,86.43-12.73,127.67-33.41,71-73.25,138.37-106.28,209.48-28.4,61.13-51.57,125.14-56.5,191.82-2.21,29.86-.7,59.85,2.01,89.66.87,9.58,1.87,19.15,2.9,28.7,9.82,91.66,23.35,173.94,34.88,259.45,5.97,43.85,10.43,87.62,19.43,133.43"/>
        <path class="cls-2" d="M379.96.02c-4.23,90.84,5.17,187.42,20.79,278.2,9.22,53.19,23.47,105.88,44.69,153.97,18.6,42.15,41.64,80.3,65.64,118.61,1.32,2.1,2.65,4.22,3.99,6.34,20.88,32.76,45.76,67.84,78.85,89.01,7.02,4.49,14.1,8.34,21.11,11.78,24.54,12.07,47.37,18.81,66.88,31.25,10.44,6.65,19.99,14.94,27.33,27.4,21.12,35.96,5.46,86.42-13.96,127.59-33.57,71.02-74.44,137.91-107.73,209-28.62,61.11-51.37,125.29-56.12,192.05-2.13,29.89-.61,59.91,2.15,89.74.89,9.59,1.9,19.16,2.95,28.72,10,91.49,24.07,173.92,35.93,259.49,6.15,43.96,10.61,87.72,20.2,133.38"/>
        <path class="cls-2" d="M375.89.02c-4.07,90.61,5.97,187.37,21.88,277.81,9.42,53.07,24.06,105.64,46.13,153.21,19.31,41.64,43.3,78.93,68.08,116.52,1.36,2.06,2.73,4.14,4.12,6.22,21.52,32.17,46.85,66.8,79.26,88.54,6.89,4.62,13.8,8.66,20.6,12.33,23.82,12.86,45.35,20.76,63.79,33.98,9.83,7.04,18.84,15.63,25.71,28.2,19.77,36.3,4.28,86.41-15.19,127.5-33.73,71.03-75.63,137.46-109.18,208.52-28.83,61.08-51.16,125.44-55.75,192.29-2.06,29.91-.51,59.96,2.29,89.81.9,9.59,1.93,19.18,3.01,28.74,10.17,91.32,24.79,173.9,36.97,259.54,6.34,44.08,10.8,87.81,20.98,133.32"/>
        <path class="cls-2" d="M371.81.02c-3.91,90.39,6.77,187.32,22.98,277.41,9.61,52.96,24.66,105.41,47.56,152.45,20.02,41.13,44.96,77.55,70.51,114.42,1.4,2.02,2.82,4.06,4.24,6.1,22.17,31.58,47.94,65.76,79.68,88.08,6.77,4.76,13.51,8.98,20.1,12.87,23.1,13.66,43.33,22.7,60.7,36.71,9.21,7.43,17.7,16.32,24.1,29,18.41,36.64,3.1,86.41-16.42,127.42-33.89,71.05-76.83,137-110.62,208.04-29.05,61.06-50.96,125.59-55.38,192.53-1.98,29.94-.42,60.02,2.43,89.88.92,9.6,1.96,19.19,3.06,28.76,10.35,91.15,25.51,173.89,38.02,259.58,6.52,44.19,10.98,87.9,21.76,133.27"/>
        <path class="cls-2" d="M367.73.02c-3.76,90.16,7.57,187.27,24.07,277.02,9.8,52.85,25.25,105.17,48.99,151.69,20.74,40.62,46.62,76.17,72.95,112.33,1.45,1.99,2.9,3.98,4.37,5.99,22.81,30.99,49.02,64.72,80.09,87.61,6.64,4.89,13.21,9.3,19.59,13.42,22.38,14.45,41.32,24.64,57.61,39.44,8.6,7.82,16.56,17,22.48,29.8,17.05,36.98,1.92,86.4-17.66,127.34-34.05,71.06-78.02,136.55-112.07,207.56-29.26,61.04-50.75,125.75-55,192.76-1.91,29.97-.32,60.08,2.57,89.95.93,9.61,1.99,19.2,3.11,28.77,10.53,90.98,26.23,173.87,39.06,259.62,6.7,44.31,11.17,88,22.54,133.22"/>
        <path class="cls-2" d="M363.65.02c-3.6,89.93,8.36,187.21,25.16,276.62,10,52.74,25.84,104.94,50.43,150.93,21.45,40.11,48.28,74.8,75.38,110.24,1.49,1.95,2.98,3.9,4.49,5.87,23.46,30.4,50.11,63.69,80.5,87.15,6.51,5.03,12.92,9.62,19.08,13.96,21.66,15.25,39.31,26.56,54.51,42.18,7.99,8.2,15.41,17.69,20.87,30.6,15.7,37.32.74,86.39-18.89,127.26-34.21,71.08-79.21,136.1-113.51,207.08-29.48,61.01-50.54,125.9-54.63,193-1.83,30-.23,60.14,2.71,90.02.95,9.61,2.03,19.21,3.17,28.79,10.7,90.8,26.95,173.85,40.11,259.67,6.88,44.42,11.35,88.09,23.32,133.16"/>
        <path class="cls-2" d="M359.57.02c-3.45,89.7,9.16,187.16,26.25,276.23,10.19,52.63,26.43,104.7,51.86,150.16,22.16,39.6,49.94,73.42,77.82,108.15,1.53,1.91,3.07,3.82,4.61,5.75,24.1,29.81,51.19,62.66,80.92,86.68,6.39,5.16,12.62,9.94,18.58,14.51,20.94,16.04,37.3,28.48,51.42,44.91,7.38,8.58,14.27,18.37,19.26,31.4,14.34,37.66-.44,86.38-20.12,127.18-34.37,71.09-80.4,135.64-114.96,206.6-29.7,60.99-50.34,126.05-54.26,193.23-1.76,30.03-.13,60.19,2.85,90.09.96,9.62,2.06,19.22,3.22,28.81,10.88,90.63,27.67,173.83,41.15,259.71,7.07,44.54,11.54,88.19,24.09,133.11"/>
        <path class="cls-2" d="M355.49.02c-3.29,89.47,9.96,187.11,27.35,275.83,10.38,52.52,27.01,104.47,53.29,149.4,22.87,39.1,51.59,72.05,80.25,106.05,1.57,1.87,3.15,3.75,4.74,5.63,24.75,29.22,52.28,61.63,81.33,86.22,6.26,5.3,12.32,10.26,18.07,15.05,20.22,16.84,35.29,30.4,48.33,47.64,6.78,8.96,13.13,19.06,17.64,32.2,12.98,37.99-1.62,86.37-21.35,127.1-34.53,71.11-81.6,135.19-116.4,206.12-29.91,60.96-50.13,126.2-53.88,193.47-1.68,30.06-.04,60.25,2.99,90.17.98,9.63,2.09,19.24,3.27,28.83,11.05,90.46,28.39,173.81,42.2,259.76,7.25,44.65,11.72,88.28,24.87,133.06"/>
        <path class="cls-2" d="M351.41.02c-3.13,89.24,10.76,187.06,28.44,275.44,10.57,52.4,27.6,104.23,54.73,148.64,23.57,38.59,53.25,70.67,82.69,103.96,1.62,1.83,3.24,3.67,4.86,5.51,25.39,28.63,53.36,60.6,81.74,85.75,6.13,5.44,12.03,10.59,17.57,15.6,19.5,17.63,33.29,32.31,45.24,50.37,6.18,9.34,11.98,19.75,16.03,33,11.62,38.33-2.8,86.36-22.59,127.02-34.7,71.12-82.79,134.73-117.85,205.64-30.13,60.94-49.92,126.35-53.51,193.71-1.61,30.09.06,60.31,3.13,90.24.99,9.63,2.12,19.25,3.33,28.85,11.23,90.29,29.11,173.79,43.24,259.8,7.43,44.77,11.91,88.38,25.65,133"/>
        <path class="cls-2" d="M347.33.02c-2.98,89.01,11.55,187,29.53,275.04,10.77,52.29,28.19,104,56.16,147.88,24.28,38.08,54.91,69.29,85.12,101.87,1.66,1.79,3.32,3.59,4.99,5.4,26.04,28.04,54.44,59.58,82.15,85.29,6.01,5.57,11.73,10.91,17.06,16.14,18.78,18.43,31.3,34.21,42.15,53.1,5.58,9.71,10.84,20.43,14.41,33.8,10.27,38.67-3.98,86.36-23.82,126.93-34.86,71.14-83.98,134.28-119.29,205.16-30.34,60.91-49.72,126.5-53.14,193.94-1.53,30.12.15,60.36,3.27,90.31,1,9.64,2.15,19.26,3.38,28.86,11.41,90.12,29.83,173.77,44.29,259.84,7.61,44.88,12.09,88.47,26.43,132.95"/>
        <path class="cls-2" d="M343.25.02c-2.82,88.78,12.35,186.95,30.62,274.65,10.96,52.18,28.77,103.77,57.6,147.11,24.99,37.58,56.57,67.92,87.56,99.78,1.7,1.75,3.4,3.51,5.11,5.28,26.68,27.46,55.52,58.55,82.57,84.82,5.88,5.71,11.44,11.23,16.56,16.69,18.06,19.23,29.31,36.11,39.06,55.84,4.98,10.08,9.69,21.12,12.8,34.6,8.91,39.01-5.16,86.35-25.05,126.85-35.02,71.15-85.18,133.83-120.74,204.68-30.56,60.89-49.51,126.65-52.77,194.18-1.46,30.15.25,60.42,3.41,90.38,1.02,9.65,2.18,19.27,3.43,28.88,11.58,89.95,30.55,173.75,45.34,259.89,7.8,45,12.28,88.57,27.21,132.9"/>
        <path class="cls-2" d="M339.17.02c-2.66,88.55,13.15,186.9,31.72,274.25,11.15,52.07,29.36,103.54,59.03,146.35,25.69,37.07,58.23,66.54,89.99,97.68,1.74,1.71,3.49,3.43,5.24,5.16,27.32,26.87,56.6,57.53,82.98,84.36,5.75,5.85,11.14,11.55,16.05,17.23,17.33,20.03,27.33,38.01,35.97,58.57,4.39,10.45,8.55,21.81,11.18,35.4,7.55,39.35-6.34,86.34-26.28,126.77-35.18,71.16-86.37,133.37-122.19,204.2-30.78,60.87-49.3,126.81-52.39,194.41-1.38,30.18.34,60.48,3.55,90.45,1.03,9.65,2.21,19.29,3.49,28.9,11.76,89.77,31.27,173.73,46.38,259.93,7.98,45.11,12.46,88.66,27.99,132.84"/>
        <path class="cls-2" d="M335.09.02c-2.51,88.32,13.95,186.85,32.81,273.86,11.35,51.96,29.94,103.31,60.46,145.59,26.4,36.57,59.89,65.17,92.43,95.59,1.79,1.67,3.57,3.35,5.36,5.04,27.97,26.28,57.67,56.51,83.39,83.89,5.62,5.99,10.84,11.88,15.54,17.77,16.61,20.83,25.36,39.91,32.88,61.3,3.8,10.82,7.41,22.49,9.57,36.2,6.2,39.69-7.52,86.33-27.52,126.69-35.34,71.18-87.56,132.92-123.63,203.72-30.99,60.84-49.1,126.96-52.02,194.65-1.31,30.21.44,60.54,3.69,90.52,1.05,9.66,2.25,19.3,3.54,28.92,11.94,89.6,31.98,173.71,47.43,259.98,8.16,45.23,12.64,88.76,28.76,132.79"/>
        <path class="cls-2" d="M331.01.02c-2.35,88.09,14.74,186.8,33.9,273.47,11.54,51.85,30.52,103.08,61.9,144.83,27.1,36.06,61.55,63.79,94.86,93.5,1.83,1.63,3.66,3.27,5.49,4.93,28.61,25.69,58.74,55.49,83.81,83.43,5.49,6.12,10.54,12.2,15.04,18.32,15.88,21.63,23.4,41.82,29.79,64.03,3.22,11.19,6.26,23.18,7.96,37.01,4.84,40.03-8.7,86.32-28.75,126.61-35.5,71.19-88.76,132.46-125.08,203.24-31.21,60.82-48.89,127.11-51.65,194.89-1.23,30.24.53,60.59,3.83,90.59,1.06,9.67,2.28,19.31,3.59,28.93,12.11,89.43,32.7,173.69,48.47,260.02,8.34,45.34,12.83,88.85,29.54,132.74"/>
        <path class="cls-2" d="M326.93.02c-2.19,87.86,15.54,186.74,34.99,273.07,11.73,51.73,31.1,102.85,63.33,144.07,27.8,35.56,63.21,62.41,97.3,91.41,1.87,1.59,3.74,3.19,5.61,4.81,29.26,25.1,59.81,54.47,84.22,82.96,5.36,6.26,10.25,12.52,14.53,18.86,15.16,22.42,21.44,43.72,26.7,66.77,2.64,11.56,5.12,23.86,6.34,37.81,3.48,40.36-9.88,86.31-29.98,126.53-35.66,71.21-89.95,132.01-126.52,202.76-31.43,60.79-48.68,127.26-51.27,195.12-1.16,30.26.63,60.65,3.97,90.67,1.08,9.67,2.31,19.32,3.65,28.95,12.29,89.26,33.42,173.67,49.52,260.06,8.53,45.46,13.01,88.94,30.32,132.69"/>
        <path class="cls-2" d="M322.85.02c-2.04,87.63,16.34,186.69,36.09,272.68,11.93,51.62,31.6,102.68,64.76,143.3,28.43,35.11,64.87,61.04,99.73,89.32,1.91,1.55,3.82,3.12,5.73,4.69,29.9,24.51,60.88,53.46,84.63,82.5,5.23,6.4,9.95,12.85,14.03,19.41,14.43,23.22,19.49,45.63,23.61,69.5,2.06,11.93,3.98,24.55,4.73,38.61,2.13,40.7-11.06,86.31-31.21,126.45-35.82,71.22-91.14,131.56-127.97,202.28-31.64,60.77-48.48,127.41-50.9,195.36-1.08,30.29.72,60.71,4.11,90.74,1.09,9.68,2.34,19.33,3.7,28.97,12.47,89.09,34.14,173.66,50.56,260.11,8.71,45.57,13.2,89.04,31.1,132.63"/>
        <path class="cls-2" d="M318.77.02c-1.88,87.41,17.14,186.64,37.18,272.28,12.12,51.51,32.19,102.45,66.2,142.54,29.14,34.61,66.53,59.66,102.17,87.22,1.96,1.51,3.91,3.04,5.86,4.57,30.55,23.92,61.95,52.44,85.05,82.03,5.1,6.54,9.64,13.18,13.52,19.95,13.66,24.05,17.55,47.54,20.52,72.23,1.48,12.31,2.83,25.24,3.11,39.41.77,41.04-12.24,86.3-32.45,126.36-35.98,71.24-92.33,131.1-129.41,201.8-31.86,60.74-48.27,127.56-50.53,195.59-1.01,30.32.82,60.77,4.25,90.81,1.11,9.68,2.37,19.35,3.75,28.99,12.64,88.92,34.86,173.64,51.61,260.15,8.89,45.69,13.38,89.13,31.88,132.58"/>
        <path class="cls-2" d="M314.69.02c-1.72,87.18,17.93,186.59,38.27,271.89,12.31,51.4,32.78,102.22,67.63,141.78,29.85,34.1,68.19,58.29,104.6,85.13,2,1.47,3.99,2.96,5.98,4.45,31.19,23.33,63.01,51.42,85.46,81.57,4.97,6.68,9.34,13.5,13.02,20.5,12.94,24.84,15.6,49.46,17.43,74.96.91,12.69,1.69,25.92,1.5,40.21-.59,41.38-13.42,86.29-33.68,126.28-36.14,71.25-93.53,130.65-130.86,201.32-32.07,60.72-48.07,127.72-50.15,195.83-.93,30.35.91,60.82,4.39,90.88,1.12,9.69,2.4,19.36,3.8,29,12.82,88.74,35.58,173.62,52.65,260.2,9.07,45.8,13.57,89.23,32.65,132.53"/>
        <path class="cls-2" d="M310.61.02c-1.57,86.95,18.73,186.53,39.36,271.49,12.51,51.29,33.37,101.99,69.06,141.02,30.56,33.6,69.85,56.91,107.04,83.04,2.04,1.43,4.08,2.88,6.11,4.34,31.84,22.75,64.07,50.41,85.87,81.1,4.84,6.82,9.04,13.82,12.51,21.04,12.22,25.64,13.66,51.38,14.33,77.69.33,13.07.54,26.61-.11,41.01-1.95,41.72-14.6,86.28-34.91,126.2-36.3,71.27-94.72,130.19-132.3,200.84-32.29,60.7-47.86,127.87-49.78,196.07-.86,30.38,1.01,60.88,4.53,90.95,1.14,9.7,2.44,19.37,3.86,29.02,12.99,88.57,36.3,173.6,53.7,260.24,9.26,45.92,13.75,89.32,33.43,132.47"/>
        <path class="cls-2" d="M306.53.02c-1.41,86.72,19.53,186.48,40.46,271.1,12.7,51.17,33.96,101.76,70.5,140.25,31.27,33.09,71.51,55.53,109.47,80.95,2.08,1.39,4.16,2.8,6.23,4.22,32.48,22.16,65.13,49.39,86.28,80.64,4.71,6.96,8.75,14.14,12,21.59,11.49,26.43,11.73,53.3,11.24,80.43-.24,13.45-.6,27.3-1.73,41.81-3.3,42.06-15.78,86.27-36.14,126.12-36.46,71.28-95.91,129.74-133.75,200.36-32.51,60.67-47.65,128.02-49.41,196.3-.78,30.41,1.1,60.94,4.67,91.02,1.15,9.7,2.47,19.38,3.91,29.04,13.17,88.4,37.02,173.58,54.74,260.28,9.44,46.03,13.94,89.42,34.21,132.42"/>
        <path class="cls-2" d="M302.45.02c-1.25,86.49,20.33,186.43,41.55,270.7,12.89,51.06,34.54,101.53,71.93,139.49,31.98,32.59,73.17,54.16,111.91,78.85,2.13,1.36,4.25,2.72,6.36,4.1,33.13,21.57,66.19,48.38,86.7,80.17,4.58,7.1,8.45,14.46,11.5,22.13,10.77,27.23,9.79,55.23,8.15,83.16-.81,13.83-1.74,27.98-3.34,42.61-4.66,42.4-16.96,86.27-37.37,126.04-36.62,71.3-97.11,129.29-135.19,199.88-32.72,60.65-47.45,128.17-49.03,196.54-.71,30.44,1.2,60.99,4.81,91.1,1.17,9.71,2.5,19.4,3.96,29.06,13.35,88.23,37.74,173.56,55.79,260.33,9.62,46.14,14.12,89.51,34.99,132.37"/>
        <path class="cls-2" d="M298.37.02c-1.1,86.26,21.12,186.38,42.64,270.31,13.09,50.95,35.13,101.29,73.37,138.73,32.69,32.08,74.83,52.78,114.34,76.76,2.17,1.32,4.33,2.64,6.48,3.98,33.77,20.98,67.2,47.39,87.11,79.71,4.43,7.24,8.15,14.78,10.99,22.68,10.05,28.02,7.85,57.16,5.06,85.89-1.38,14.22-2.89,28.67-4.96,43.41-6.02,42.73-18.14,86.26-38.61,125.96-36.78,71.31-98.3,128.83-136.64,199.4-32.94,60.62-47.24,128.32-48.66,196.77-.63,30.47,1.29,61.05,4.95,91.17,1.18,9.72,2.53,19.41,4.02,29.08,13.52,88.06,38.46,173.54,56.84,260.37,9.81,46.26,14.31,89.61,35.77,132.31"/>
        <path class="cls-2" d="M294.29.02c-.94,86.03,21.92,186.32,43.73,269.91,13.28,50.84,35.72,101.06,74.8,137.97,33.4,31.58,76.49,51.4,116.78,74.67,2.21,1.28,4.41,2.56,6.61,3.86,34.42,20.39,68.27,46.36,87.52,79.24,4.3,7.38,7.86,15.11,10.49,23.22,9.32,28.82,5.96,59.1,1.97,88.62-1.93,14.61-4.03,29.35-6.57,44.21-7.37,43.07-19.32,86.25-39.84,125.88-36.94,71.32-99.49,128.38-138.09,198.92-33.15,60.6-47.03,128.47-48.29,197.01-.56,30.5,1.39,61.11,5.09,91.24,1.19,9.72,2.56,19.42,4.07,29.09,13.7,87.89,39.18,173.52,57.88,260.42,9.99,46.37,14.49,89.7,36.55,132.26"/>
        <path class="cls-2" d="M290.22.02c-.78,85.8,22.72,186.27,44.83,269.52,13.47,50.73,36.31,100.83,76.23,137.21,35.98,32.78,83.01,52.07,125.94,76.32s84.72,57.09,97.92,102.54c8.6,29.61,3.98,61.04-1.12,91.36-9.84,58.49-21.59,117.61-49.26,170.81-37.1,71.34-100.69,127.92-139.53,198.44-48.21,87.52-54.86,190.65-42.69,288.56,12.17,97.91,41.93,193.02,63.05,289.57,10.17,46.49,14.67,89.8,37.32,132.21"/>
      </g>
    </g>
  </g>
</svg>