<?xml version="1.0" encoding="UTF-8"?>
<svg id="Lag_2" xmlns="http://www.w3.org/2000/svg" version="1.1" viewBox="0 0 101 101">
  <!-- Generator: Adobe Illustrator 29.0.1, SVG Export Plug-In . SVG Version: 2.1.0 Build 192)  -->
  <defs>
    <style>
      .st0 {
        stroke-width: 2px;
      }

      .st0, .st1 {
        fill: none;
        stroke: #0100d4;
        stroke-miterlimit: 10;
      }
    </style>
  </defs>
  <rect class="st0" x=".5" y=".5" width="100" height="100"/>
  <g>
    <path class="st0" d="M29.2.5c2,11,.8,23.2,15.5,33.5,3.2,2.3,7.7,4.7,16.6,5.7,11.2,1.2,26.6-.2,35,2,7.1,1.9,3.3,4.9-.9,7.2-7.1,4-14,7.9-20.8,11.9-5.9,3.4-11.7,6.9-13.2,10.6-.9,2.2-.2,4.4.5,6.6,2.5,7.9-36.3,14.5-36.1,22.4"/>
    <path class="st0" d="M17.2,100.5c-.7-3.3,17.7-6.8,22.7-9.8,1.1-2.8,1.4-5.6,3-8.3,2-3.1,4.8-5.9,7.4-8.8s1.3-1.9,1.4-3.1.4-2.3,1.2-3.5c2.2-3,7.7-5.8,13-8.5,4.8-2.5,9.7-4.9,14.3-7.4,1.9-1,3.7-2.1,5.4-3.1,3.8-2.3,6.6-4.4,2.7-7.1-1.1-.8-2.2-1.8-4.6-2.4-6.5-1.6-16.8-1.5-25.5-2.6-8.2-1-13.5-2.8-17.7-4.8-2.2-1-4.1-2.2-5.8-3.3-5.9-3.8-8.9-7.8-10.8-11.9-2.3-4.9-2.1-10.8-3.6-15.6"/>
    <path class="st0" d="M8.6,100.5c-1.3-3,27.2-6,28.7-8.8-1.6-4.1-4.8-8.1-5-12.3-.2-4.1,2.1-8.4,7.8-12.3s1.6-1.3,2.3-2.2,1.3-1.6,2.3-2.3c3.1-2.3,8-4.3,12.9-6.4,4.9-2,9.5-4,13.5-6.1,1.8-1,3.5-1.9,5-2.9,3.4-2.3,5.9-4.8,4.6-7,.1-1.3,0-2.7-2.1-3.8-4.5-2.2-14.3-3-23.2-4.2-7.4-1-13.5-2.3-18.7-3.8-2.4-.7-4.6-1.6-6.5-2.4-7.2-3-11.1-6.4-13.5-9.8-3.4-4.9-2.7-10.9-4.8-15.8"/>
    <path class="st0" d="M.5,100.5c-1.9-2.6,36.3-5.2,34.2-7.8-4.4-5.4-10.6-10.8-13.1-16.3-2.4-5.5-.8-11.3,9.8-16.2,8.5-3.9,22.3-7.1,30.5-11.1,6.1-3,8.7-6.3,11-9.6,1.2-1.7,2.2-3.5.4-5.1-2.8-2.6-11.7-4.4-21-5.8-9.2-1.4-19.3-2.5-27-4.4-8.6-2.1-13.4-4.9-16.2-7.8C4.4,11.8,5.9,5.4,3.2.5"/>
  </g>
  <path class="st1" d="M-.2,55.3"/>
</svg>